<?xml version="1.0" standalone="no"?>
<!DOCTYPE svg PUBLIC "-//W3C//DTD SVG 20010904//EN"
 "http://www.w3.org/TR/2001/REC-SVG-20010904/DTD/svg10.dtd">
<svg version="1.0" xmlns="http://www.w3.org/2000/svg"
 width="260.000000pt" height="260.000000pt" viewBox="0 0 260.000000 260.000000"
 preserveAspectRatio="xMidYMid meet">
<metadata>
Created by potrace 1.14, written by Peter Selinger 2001-2017
</metadata>
<g transform="translate(0.000000,260.000000) scale(0.100000,-0.100000)"
fill="#000000" stroke="none">
<path d="M880 1663 c5 -21 23 -128 41 -238 17 -110 32 -207 34 -215 2 -8 13
-78 25 -155 12 -77 24 -147 25 -155 2 -8 4 -19 4 -23 1 -4 47 -6 103 -5 l103
3 7 45 c3 25 9 59 12 75 6 34 14 85 21 130 2 17 9 55 14 85 17 89 19 104 20
129 1 13 3 22 6 19 5 -5 31 -149 50 -278 4 -25 8 -49 9 -55 2 -5 6 -32 10 -60
15 -104 4 -95 117 -95 108 0 104 -2 114 63 4 33 109 681 120 745 4 21 1 22
-80 22 -46 0 -86 -3 -88 -7 -3 -5 -8 -35 -11 -68 -4 -33 -8 -71 -11 -85 -4
-24 -10 -79 -20 -185 -3 -27 -7 -63 -9 -80 -3 -16 -8 -60 -11 -97 -7 -69 -19
-90 -23 -40 -1 15 -9 67 -17 116 -9 50 -18 108 -21 130 -3 23 -12 84 -20 136
-9 52 -18 110 -20 129 -3 19 -7 38 -10 42 -3 5 -39 9 -79 9 -69 0 -75 -2 -80
-22 -8 -36 -15 -79 -21 -128 -3 -25 -7 -52 -9 -60 -2 -8 -7 -40 -10 -70 -4
-30 -8 -57 -10 -60 -2 -3 -6 -29 -10 -59 -4 -30 -8 -62 -10 -72 -2 -9 -7 -38
-10 -63 -7 -42 -21 -64 -22 -33 -1 15 -12 121 -17 162 -2 17 -7 61 -11 98 -3
37 -8 76 -10 85 -1 9 -6 46 -9 82 -4 36 -9 82 -12 103 l-6 37 -88 0 -88 0 8
-37z"/>
<path d="M1738 1092 c-32 -19 -58 -68 -58 -107 0 -87 110 -142 188 -94 25 16
52 67 52 99 0 89 -107 149 -182 102z"/>
</g>
</svg>
