<?xml version="1.0" standalone="no"?>
<!DOCTYPE svg PUBLIC "-//W3C//DTD SVG 20010904//EN"
 "http://www.w3.org/TR/2001/REC-SVG-20010904/DTD/svg10.dtd">
<svg version="1.0" xmlns="http://www.w3.org/2000/svg"
 width="260.000000pt" height="260.000000pt" viewBox="0 0 260.000000 260.000000"
 preserveAspectRatio="xMidYMid meet">
<metadata>
Created by potrace 1.14, written by Peter Selinger 2001-2017
</metadata>
<g transform="translate(0.000000,260.000000) scale(0.100000,-0.100000)"
fill="#000000" stroke="none">
<path d="M1180 2594 c-335 -43 -611 -178 -823 -404 -166 -177 -276 -389 -329
-633 -30 -144 -30 -370 0 -514 111 -519 496 -904 1015 -1015 144 -30 370 -30
514 0 519 111 904 496 1015 1015 30 144 30 370 0 514 -111 519 -502 909 -1015
1014 -98 20 -302 32 -377 23z m-125 -926 c3 -18 19 -149 35 -292 16 -142 31
-260 32 -262 2 -1 24 130 48 292 l45 294 82 0 c46 0 83 -2 83 -5 0 -22 83
-544 88 -559 5 -11 19 84 36 230 15 137 30 268 33 292 l6 42 89 0 c88 0 90 0
85 -22 -3 -13 -34 -200 -68 -415 l-63 -393 -102 0 c-89 0 -103 2 -108 18 -2 9
-22 120 -42 246 l-38 229 -40 -246 -40 -247 -102 0 c-89 0 -103 2 -108 18 -3
9 -32 188 -66 397 -33 209 -62 388 -64 398 -4 15 5 17 84 17 l89 0 6 -32z
m829 -597 c26 -27 31 -39 31 -81 0 -43 -5 -54 -33 -82 -28 -28 -39 -33 -82
-33 -43 0 -54 5 -82 33 -28 28 -33 39 -33 81 0 52 25 92 70 112 37 16 96 3
129 -30z"/>
</g>
</svg>
